<svg width="20" height="19" viewBox="0 0 20 19" fill="none" xmlns="http://www.w3.org/2000/svg">
<path d="M10.4166 19C15.6597 19 19.9101 14.7467 19.9101 9.5C19.9101 4.25329 15.6597 0 10.4166 0C5.17348 0 0.923096 4.25329 0.923096 9.5C0.923096 14.7467 5.17348 19 10.4166 19Z" fill="url(#paint0_linear_439_8)"/>
<path d="M13.0341 6.31467C12.9189 6.31388 12.8061 6.34735 12.7099 6.41082C12.6137 6.47429 12.5385 6.56492 12.4939 6.6712C12.4493 6.77748 12.4372 6.89463 12.4592 7.0078C12.4812 7.12097 12.5362 7.22505 12.6174 7.30685C12.6986 7.38865 12.8023 7.44448 12.9152 7.46726C13.0281 7.49004 13.1453 7.47875 13.2518 7.43482C13.3583 7.39089 13.4494 7.31629 13.5135 7.22049C13.5775 7.12469 13.6118 7.012 13.6118 6.89671C13.6118 6.74303 13.551 6.59559 13.4428 6.48655C13.3346 6.37751 13.1877 6.31573 13.0341 6.31467Z" fill="white"/>
<path d="M10.4565 7.06826C9.97505 7.06826 9.50443 7.21112 9.10414 7.47877C8.70385 7.74642 8.39186 8.12684 8.20762 8.57192C8.02339 9.017 7.97519 9.50676 8.06911 9.97926C8.16303 10.4518 8.39486 10.8858 8.73528 11.2264C9.0757 11.5671 9.50942 11.7991 9.9816 11.8931C10.4538 11.987 10.9432 11.9388 11.388 11.7544C11.8328 11.5701 12.2129 11.2579 12.4804 10.8573C12.7478 10.4567 12.8906 9.98581 12.8906 9.50406C12.8895 8.85837 12.6328 8.23943 12.1765 7.78286C11.7202 7.32628 11.1017 7.06932 10.4565 7.06826ZM10.4565 11.0548C10.1469 11.0556 9.84413 10.9643 9.58654 10.7926C9.32894 10.6208 9.12818 10.3763 9.00973 10.0901C8.89127 9.80393 8.86048 9.48897 8.92127 9.18525C8.98205 8.88152 9.13166 8.60272 9.3511 8.38425C9.57054 8.16578 9.84992 8.0175 10.1537 7.95824C10.4576 7.89897 10.7721 7.9314 11.0575 8.0514C11.3429 8.1714 11.5862 8.37355 11.7565 8.6322C11.9268 8.89085 12.0165 9.19431 12.0142 9.50406C12.0131 9.91714 11.8487 10.313 11.5568 10.6051C11.2649 10.8972 10.8693 11.0618 10.4565 11.0628V11.0548Z" fill="white"/>
<path d="M12.3887 14.4472H8.44465C7.66125 14.4461 6.90995 14.1356 6.35414 13.5832C5.79833 13.0307 5.48298 12.281 5.47668 11.4971V7.51054C5.47774 6.72317 5.79077 5.96836 6.34714 5.4116C6.90352 4.85485 7.65782 4.5416 8.44465 4.54054H12.3887C13.1755 4.5416 13.9298 4.85485 14.4862 5.4116C15.0425 5.96836 15.3556 6.72317 15.3566 7.51054V11.4971C15.3503 12.281 15.035 13.0307 14.4792 13.5832C13.9234 14.1356 13.172 14.4461 12.3887 14.4472ZM8.44465 5.48935C7.90711 5.48932 7.39129 5.70163 7.00934 6.08012C6.62738 6.4586 6.41017 6.97266 6.40492 7.51054V11.4971C6.40598 12.0378 6.62134 12.5559 7.00375 12.9378C7.38616 13.3198 7.90437 13.5343 8.44465 13.5342H12.3887C12.9289 13.5343 13.4471 13.3198 13.8296 12.9378C14.212 12.5559 14.4273 12.0378 14.4284 11.4971V7.51054C14.4273 6.96989 14.212 6.45175 13.8296 6.06982C13.4471 5.6879 12.9289 5.4734 12.3887 5.4734L8.44465 5.48935Z" fill="white"/>
<defs>
<linearGradient id="paint0_linear_439_8" x1="0.923096" y1="9.5" x2="18.4615" y2="9.48801" gradientUnits="userSpaceOnUse">
<stop stop-color="#FFE185"/>
<stop offset="0.21" stop-color="#FFBB36"/>
<stop offset="0.38" stop-color="#FF5176"/>
<stop offset="0.52" stop-color="#F63395"/>
<stop offset="0.74" stop-color="#A436D2"/>
<stop offset="1" stop-color="#5F4EED"/>
</linearGradient>
</defs>
</svg>
