<svg width="56" height="42" viewBox="0 0 56 42" fill="none" xmlns="http://www.w3.org/2000/svg">
<g clip-path="url(#clip0_251_115)">
<path d="M55.6718 3.6365C54.8074 1.7538 53.3795 0.633731 51.2962 0.368652C35.7286 0.368652 20.1609 0.368652 4.59327 0.368652C4.14247 0.48055 3.67965 0.51966 3.24198 0.717383C1.44319 1.53326 0.367636 2.89776 0 4.82067C0 15.6074 0 26.3931 0 37.1798C0.12911 37.5872 0.1685 38.0131 0.351224 38.4128C1.17184 40.2 2.54829 41.2657 4.48385 41.6318C20.0876 41.6318 35.6914 41.6318 51.2962 41.6318C51.7656 41.5232 52.2492 41.508 52.7066 41.3048C54.5316 40.4933 55.628 39.1266 55.9989 37.1798C55.9989 26.43 55.9989 15.6791 55.9989 4.92931C55.8829 4.50018 55.8643 4.05476 55.6718 3.6365ZM49.2928 2.5675C48.0477 3.79838 46.866 4.96624 45.6865 6.13411C45.518 6.30141 45.3068 6.22971 45.1164 6.22971C39.0296 6.23406 32.9429 6.23297 26.855 6.23297C25.8319 6.23297 25.2794 6.62624 25.298 7.34C25.3166 8.03963 25.8451 8.40466 26.844 8.40466C32.1474 8.40466 37.4508 8.40466 42.7541 8.40466C42.9292 8.40466 43.1054 8.40466 43.4139 8.40466C42.3909 9.415 41.4674 10.3156 40.5615 11.2325C40.3711 11.4259 40.1698 11.4487 39.9268 11.4487C37.5033 11.4444 35.0786 11.4455 32.6551 11.4465C32.491 11.4465 32.3257 11.4378 32.1638 11.4596C31.5642 11.54 31.1539 11.9984 31.1681 12.559C31.1813 13.1011 31.5806 13.5465 32.1638 13.5998C32.6157 13.641 33.0742 13.6171 33.5293 13.6171C35.0228 13.6182 36.5164 13.6171 38.0099 13.6171C38.0766 13.7942 37.9169 13.8409 37.8414 13.9159C36.1826 15.5705 34.5327 17.2326 32.8542 18.8677C30.0773 21.5717 25.9545 21.6206 23.2005 18.9122C17.7494 13.5509 12.3421 8.14718 6.91616 2.76088C6.87021 2.71525 6.82972 2.66419 6.74438 2.56641C20.9367 2.5675 35.06 2.5675 49.2928 2.5675ZM50.3454 39.459C35.4528 39.4612 20.5614 39.4612 5.66882 39.4601C5.10205 39.4601 4.5506 39.3743 3.93349 39.0506C4.3438 38.6747 4.72675 38.3433 5.08673 37.9892C6.39315 36.7007 7.69192 35.4057 8.99287 34.1118C9.34081 33.7653 9.60013 33.3905 9.43381 32.8614C9.21826 32.1748 8.47971 31.8771 7.86151 32.2519C7.66237 32.3725 7.4884 32.5398 7.32209 32.7039C5.72244 34.2857 4.12825 35.8718 2.49249 37.4948C2.25396 37.0081 2.18831 36.5421 2.18831 36.063C2.18831 26.0009 2.18722 15.9388 2.18941 5.87772C2.18941 4.71094 2.68178 3.79186 3.6326 3.10526C3.86237 2.93904 4.01336 2.94556 4.22782 3.15849C9.60888 8.5133 14.9965 13.8627 20.3951 19.2012C20.6828 19.4858 20.5176 19.6031 20.3283 19.79C18.2374 21.8606 16.1497 23.9335 14.0621 26.0074C13.3607 26.7038 13.2502 27.335 13.7382 27.8412C14.2426 28.3648 14.8926 28.2595 15.6235 27.5338C17.698 25.4729 19.7769 23.4164 21.8415 21.3457C22.1118 21.0741 22.2748 21.0078 22.6217 21.2718C25.7816 23.6695 30.2173 23.6619 33.3893 21.2686C33.6573 21.0665 33.8072 20.9926 34.0906 21.2751C39.9706 27.1329 45.8637 32.9787 51.7536 38.8268C51.8291 38.9017 51.8991 38.9832 51.9921 39.0842C51.4582 39.3786 50.9089 39.4579 50.3454 39.459ZM53.8139 35.8186C53.8139 36.3661 53.7745 36.9017 53.5469 37.4438C53.3314 37.3851 53.2351 37.2189 53.1092 37.0951C47.3223 31.3535 41.5418 25.6054 35.7439 19.8758C35.3883 19.5249 35.4321 19.3696 35.757 19.0491C41.0637 13.8029 46.3605 8.54806 51.642 3.27691C51.9855 2.93361 52.1989 2.94774 52.5337 3.22368C53.3554 3.89832 53.7975 4.75114 53.8084 5.80819C53.8204 6.94781 53.8117 8.08743 53.8117 9.22705C53.8117 18.0898 53.8117 26.9547 53.8139 35.8186Z" fill="#32830A"/>
<path d="M11.5959 28.9288C12.1637 28.9375 12.6703 29.447 12.6703 30.0076C12.6703 30.5899 12.12 31.1146 11.5401 31.0864C10.9612 31.0592 10.4842 30.5508 10.5006 29.9783C10.5159 29.409 11.0258 28.9201 11.5959 28.9288Z" fill="#32830A"/>
<path d="M22.9849 7.32079C22.9838 7.89984 22.498 8.39414 21.9225 8.40066C21.3382 8.40827 20.8087 7.87159 20.8273 7.28929C20.8448 6.72545 21.3656 6.22572 21.9258 6.23549C22.5013 6.24636 22.986 6.74175 22.9849 7.32079Z" fill="#32830A"/>
</g>
<defs>
<clipPath id="clip0_251_115">
<rect y="0.368652" width="56" height="41.2632" fill="white"/>
</clipPath>
</defs>
</svg>
