<svg width="30" height="31" viewBox="0 0 30 31" fill="none" xmlns="http://www.w3.org/2000/svg">
<path d="M15 31C23.2843 31 30 24.0604 30 15.5C30 6.93959 23.2843 0 15 0C6.71573 0 0 6.93959 0 15.5C0 24.0604 6.71573 31 15 31Z" fill="white"/>
<path d="M16.6236 25V16.6863H19.3419L19.8647 13.2494H16.6236V11.0145C16.6236 10.0755 17.0726 9.13641 18.524 9.13641H20V6.23163C19.1354 6.09007 18.2618 6.01266 17.3862 6C14.7109 6 12.9705 7.64646 12.9705 10.6264V13.2494H10V16.6863H12.9705V25H16.6236Z" fill="#3B5998"/>
</svg>
