<svg width="30" height="31" viewBox="0 0 30 31" fill="none" xmlns="http://www.w3.org/2000/svg">
<path d="M15 30.0158C23.2843 30.0158 30 23.2954 30 15.0055C30 6.71556 23.2843 -0.00476074 15 -0.00476074C6.71573 -0.00476074 0 6.71556 0 15.0055C0 23.2954 6.71573 30.0158 15 30.0158Z" fill="white"/>
<path d="M16.2721 13.9536L21.2448 8.16492H20.0677L15.7496 13.204L12.3002 8.16492H8.29053L13.5087 15.7677L8.29053 21.8335H9.47391L14.0312 16.5298L17.7324 21.8335H21.7169L16.3035 13.9536H16.2721ZM14.6544 15.8433L14.1256 15.0874L9.92082 9.06566H11.7337L15.1264 13.9284L15.6552 14.6843L20.0614 20.9832H18.2486L14.6481 15.8244L14.6544 15.8433Z" fill="black"/>
</svg>
