<svg width="20" height="19" viewBox="0 0 20 19" fill="none" xmlns="http://www.w3.org/2000/svg">
<path d="M10.4549 19C15.698 19 19.9484 14.7467 19.9484 9.5C19.9484 4.25329 15.698 0 10.4549 0C5.21181 0 0.961426 4.25329 0.961426 9.5C0.961426 14.7467 5.21181 19 10.4549 19Z" fill="url(#paint0_linear_439_7)"/>
<path d="M11.26 8.83435L14.4073 5.17069H13.6623L10.9294 8.35995L8.7462 5.17069H6.2085L9.5111 9.98248L6.2085 13.8216H6.95746L9.84176 10.4649L12.1843 13.8216H14.706L11.2799 8.83435H11.26ZM10.2362 10.0303L9.90152 9.55193L7.24031 5.74077H8.38766L10.535 8.8184L10.8696 9.29679L13.6583 13.2834H12.5109L10.2322 10.0184L10.2362 10.0303Z" fill="white"/>
<defs>
<linearGradient id="paint0_linear_439_7" x1="3.74215" y1="2.78263" x2="17.1769" y2="16.2082" gradientUnits="userSpaceOnUse">
<stop stop-color="#23004A"/>
<stop offset="0.96" stop-color="#020003"/>
<stop offset="1"/>
</linearGradient>
</defs>
</svg>
