<svg width="255" height="77" viewBox="0 0 255 77" fill="none" xmlns="http://www.w3.org/2000/svg">
<g clip-path="url(#clip0_251_6)">
<path fill-rule="evenodd" clip-rule="evenodd" d="M4.59705 36.3515L0 62.5933H5.38695L7.38679 51.0598H17.3883L15.4071 62.5933H20.7579L25.355 36.3515H20.0404L18.2505 46.4249H8.26653L10.0202 36.3515H4.59705Z" fill="#0D0C0C"/>
<path fill-rule="evenodd" clip-rule="evenodd" d="M29.4013 45.8455C27.3494 48.0348 26.3238 50.8292 26.3246 54.2288C26.3246 56.9599 27.1269 59.1355 28.7316 60.7555C30.3289 62.3682 32.5026 63.1762 35.2375 63.1762C38.4041 63.1762 41.004 62.0793 43.0373 59.8853C45.0706 57.6913 46.0841 54.9036 46.0779 51.5219C46.0779 48.7173 45.3039 46.5214 43.756 44.9342C42.2081 43.347 40.0589 42.5542 37.3085 42.5557C34.0882 42.5557 31.4525 43.6504 29.4013 45.8396M37.0273 46.7474C38.2664 46.7474 39.234 47.161 39.9302 47.9882C40.6303 48.8092 40.9803 49.9527 40.9803 51.4187C40.9803 53.5533 40.4517 55.3395 39.3947 56.7773C38.3376 58.2152 37.0226 58.9349 35.4498 58.9365C34.1858 58.9365 33.1999 58.5291 32.4921 57.7144C31.7804 56.9052 31.4268 55.7734 31.4268 54.3379C31.4268 52.2581 31.9713 50.4738 33.0603 48.9851C34.1493 47.4964 35.4716 46.7525 37.0273 46.7533V46.7474Z" fill="#0D0C0C"/>
<path fill-rule="evenodd" clip-rule="evenodd" d="M51.3692 43.1398L47.9517 62.5922H52.9793L54.5953 53.389C54.9453 51.4785 55.4995 50.0618 56.2603 49.1493C57.021 48.2369 58.0104 47.7748 59.2227 47.7748C59.4511 47.7778 59.6791 47.7959 59.9052 47.8287C60.1747 47.8663 60.5213 47.9261 60.9401 48.0234L61.8864 42.6284C61.7907 42.6167 61.6892 42.6038 61.569 42.5979C61.4489 42.5921 61.2937 42.5979 61.1023 42.5979C59.7734 42.5979 58.6416 42.9381 57.7187 43.6136C56.7958 44.2892 55.9476 45.3963 55.1752 46.9292L55.9289 43.1457L51.3692 43.1398Z" fill="#0D0C0C"/>
<path fill-rule="evenodd" clip-rule="evenodd" d="M65.179 44.2411C63.8442 45.2927 63.1776 46.7646 63.1792 48.6567C63.1792 50.1814 63.6167 51.4 64.4836 52.3124C65.3505 53.2249 67.082 54.1127 69.6734 54.97L69.8531 55.0251C71.7036 55.628 72.6276 56.3622 72.6253 57.2277C72.6253 57.915 72.3919 58.4322 71.9182 58.7852C71.4445 59.1382 70.7328 59.3071 69.7877 59.3071C68.7377 59.3071 67.9081 59.0162 67.292 58.4251C66.676 57.834 66.3516 57.0271 66.3038 55.9869H61.527V56.0596C61.527 58.3223 62.2434 60.0741 63.6762 61.315C65.109 62.5558 67.1201 63.1762 69.7096 63.1762C72.0921 63.1762 73.9815 62.5824 75.3777 61.3947C76.7739 60.207 77.474 58.6112 77.4779 56.6073C77.4779 55.0615 77.0571 53.8406 76.2154 52.9446C75.3738 52.0485 73.7695 51.2276 71.4025 50.4816L71.2765 50.4453C69.0441 49.7416 67.9267 48.9988 67.9244 48.2169C67.917 47.9582 67.9753 47.7019 68.0937 47.4721C68.2121 47.2423 68.3867 47.0466 68.6011 46.9034C69.0503 46.5867 69.6722 46.4342 70.468 46.4342C71.3839 46.4342 72.1084 46.6688 72.6533 47.1379C73.1982 47.6071 73.5272 48.2685 73.6404 49.1388H78.4171C78.3938 47.0941 77.7155 45.5065 76.3823 44.3759C75.0491 43.2453 73.1822 42.6797 70.7818 42.6789C68.3876 42.6789 66.5243 43.2043 65.1919 44.2551" fill="#0D0C0C"/>
<path fill-rule="evenodd" clip-rule="evenodd" d="M86.0512 50.9496C86.3208 49.5751 86.8411 48.5113 87.6007 47.7619C88.3603 47.0124 89.3252 46.643 90.4686 46.643C91.57 46.643 92.4019 46.9538 92.9702 47.5684C93.5384 48.1829 93.8207 49.093 93.8207 50.2928C93.8207 50.3597 93.8149 50.4758 93.8021 50.6212C93.7892 50.7666 93.7846 50.8769 93.7846 50.9496H86.0512ZM83.3677 45.8103C81.5242 47.9331 80.6024 50.656 80.6024 53.979C80.6024 56.8805 81.3309 59.1394 82.7878 60.7555C84.2447 62.3717 86.2819 63.1786 88.8993 63.1762C91.2398 63.1762 93.2288 62.6289 94.8661 61.5343C96.47 60.4874 97.6223 58.8714 98.0934 57.0084H92.5921C92.2679 57.6217 91.7839 58.1349 91.192 58.4932C90.5738 58.8307 89.878 58.9986 89.1747 58.9799C88.0254 58.9799 87.1445 58.6081 86.5226 57.8657C85.9007 57.1233 85.595 56.0654 85.595 54.685V54.5677H98.566C98.6978 53.6189 98.7818 52.907 98.8227 52.4391C98.8635 51.9711 98.8833 51.5442 98.8833 51.1795C98.8833 48.5156 98.1409 46.4253 96.656 44.9084C95.1711 43.3916 93.1121 42.6331 90.4791 42.6331C87.5832 42.6284 85.2065 43.6863 83.3688 45.8103H83.3677Z" fill="#0D0C0C"/>
<path fill-rule="evenodd" clip-rule="evenodd" d="M104.071 36.3504L99.5461 62.5922H104.933L106.651 52.5188H110.829C112.325 52.5188 113.375 52.7561 113.979 53.2307C114.583 53.6999 114.882 54.5208 114.882 55.6936V56.0091L114.744 59.1124C114.733 59.4103 114.721 59.6988 114.715 59.9639C114.709 60.2289 114.715 60.5233 114.715 60.8458C114.706 61.1943 114.732 61.5429 114.792 61.8861C114.847 62.1328 114.938 62.3699 115.062 62.5898H121.317V61.7513C120.873 61.5261 120.569 61.2645 120.395 60.9596C120.221 60.6547 120.131 60.2242 120.131 59.6636C120.131 59.537 120.137 59.3786 120.144 59.2016C120.151 59.0245 120.156 58.8427 120.167 58.6492L120.24 55.5095V54.7871C120.24 53.497 120.089 52.5786 119.785 52.0075C119.48 51.4363 118.94 51.0094 118.18 50.7174C119.712 50.267 120.905 49.4195 121.76 48.1747C122.615 46.93 123.043 45.4213 123.044 43.6488C123.044 41.2398 122.278 39.4212 120.746 38.1928C119.215 36.9645 116.954 36.35 113.964 36.3492L104.071 36.3504ZM113.579 40.9478C114.931 40.9478 115.931 41.1918 116.572 41.6726C117.212 42.1535 117.535 42.8947 117.535 43.8927C117.535 45.2735 117.107 46.3197 116.252 47.0312C115.396 47.7427 114.147 48.0996 112.505 48.102H107.442L108.704 40.9478H113.579Z" fill="#32830A"/>
<path fill-rule="evenodd" clip-rule="evenodd" d="M132.83 53.9977C133.884 53.8014 134.927 53.5517 135.955 53.2495L135.554 55.4778C135.386 56.4564 134.858 57.3357 134.075 57.9408C133.272 58.5788 132.273 58.9181 131.249 58.9013C130.562 58.9013 130.017 58.7254 129.616 58.3723C129.215 58.0193 129.017 57.5572 129.017 56.9732C129.017 55.4767 130.286 54.4833 132.825 53.993M136.681 48.2427C136.681 49.3686 135.529 50.0461 133.227 50.2752C132.749 50.3174 132.372 50.3597 132.091 50.3925C129.169 50.7154 127.09 51.4254 125.853 52.5223C124.616 53.6193 124 55.2554 124.004 57.4306C124.004 59.1163 124.518 60.4709 125.547 61.4944C126.576 62.5179 127.967 63.0288 129.72 63.0273C130.678 63.0378 131.628 62.8473 132.509 62.4678C133.353 62.0961 134.191 61.4885 135.036 60.6488V62.5886H140.273V62.109C140.1 61.9486 139.964 61.751 139.878 61.5308C139.795 61.2733 139.756 61.0037 139.761 60.7332C139.761 60.5702 139.773 60.3814 139.79 60.1926C139.808 60.0037 139.832 59.7727 139.868 59.5229L141.634 49.2126C141.67 49.0121 141.7 48.8233 141.718 48.6344C141.735 48.4456 141.742 48.2697 141.742 48.0938C141.742 46.3971 141.061 45.0609 139.7 44.0851C138.339 43.1093 136.454 42.6226 134.044 42.6249C131.619 42.6249 129.752 43.1058 128.429 44.0663C127.106 45.0268 126.292 46.5175 125.979 48.5371H130.863C130.995 47.8334 131.294 47.3209 131.767 46.9925C132.241 46.6641 132.91 46.4941 133.772 46.4941C134.658 46.4941 135.365 46.6512 135.891 46.9737C136.417 47.2963 136.681 47.7196 136.681 48.2427Z" fill="#32830A"/>
<path fill-rule="evenodd" clip-rule="evenodd" d="M156.991 47.5977C157.53 48.1395 157.807 48.9183 157.835 49.9281H162.899C162.815 47.5613 162.073 45.7423 160.672 44.4839C159.27 43.2254 157.288 42.5921 154.74 42.5921C151.736 42.5921 149.316 43.6343 147.48 45.7188C145.645 47.8033 144.727 50.5325 144.727 53.9063C144.727 56.8563 145.477 59.1316 146.977 60.7321C148.478 62.3326 150.615 63.1352 153.388 63.1399C155.866 63.1399 157.893 62.4831 159.469 61.1695C161.05 59.8619 162.048 58.0029 162.469 55.6221H157.404C157.134 56.6554 156.667 57.4587 156.003 58.024C155.34 58.5893 154.519 58.8696 153.561 58.8696C152.358 58.8696 151.428 58.4787 150.772 57.6968C150.115 56.915 149.788 55.7976 149.79 54.3449C149.79 52.1134 150.239 50.2967 151.137 48.8948C152.035 47.4929 153.21 46.7916 154.663 46.7908C155.68 46.7908 156.459 47.0582 156.996 47.5989" fill="#32830A"/>
<path fill-rule="evenodd" clip-rule="evenodd" d="M168.018 43.1398L164.666 62.5933H169.699L173.034 43.1398H168.018Z" fill="#32830A"/>
<path fill-rule="evenodd" clip-rule="evenodd" d="M168.4 40.9138H173.47L174.218 36.3515H169.19L168.4 40.9138Z" fill="#32830A"/>
<path fill-rule="evenodd" clip-rule="evenodd" d="M177.486 43.1398L174.116 62.5922H179.115L180.94 52.1177C181.234 50.4629 181.832 49.1739 182.748 48.231C183.17 47.7788 183.681 47.42 184.249 47.1777C184.817 46.9353 185.429 46.8147 186.045 46.8236C186.825 46.8236 187.422 47.0124 187.829 47.383C188.236 47.7537 188.447 48.3014 188.447 49.0133C188.444 49.1963 188.432 49.3791 188.41 49.561C188.386 49.7791 188.351 50.0102 188.309 50.2647L186.184 62.5945H191.254L193.444 50.1251C193.516 49.7299 193.56 49.3522 193.6 48.9816C193.64 48.611 193.654 48.2392 193.654 47.8557C193.654 46.2255 193.148 44.9299 192.137 43.969C191.126 43.008 189.765 42.5256 188.053 42.5217C186.858 42.5051 185.679 42.7984 184.63 43.3732C183.606 43.9385 182.578 44.8591 181.547 46.1352L182.091 43.1421L177.486 43.1398Z" fill="#32830A"/>
<path fill-rule="evenodd" clip-rule="evenodd" d="M202.878 49.1071C203.781 47.756 204.942 47.0805 206.361 47.0805C207.493 47.0805 208.345 47.4323 208.935 48.1149C209.525 48.7975 209.816 49.8249 209.816 51.1642C209.816 53.3785 209.384 55.1366 208.532 56.4419C207.681 57.7473 206.538 58.3947 205.114 58.3947C203.965 58.3947 203.079 58.0377 202.456 57.3239C201.828 56.612 201.517 55.5893 201.517 54.2745C201.517 52.1822 201.97 50.4621 202.876 49.1141M198.986 45.9616C197.275 48.1642 196.419 50.9582 196.419 54.3437C196.419 56.9302 197.022 58.9701 198.228 60.4635C199.433 61.9569 201.069 62.7032 203.135 62.7024C204.187 62.7203 205.225 62.4555 206.141 61.9354C207.02 61.4252 207.816 60.6453 208.516 59.5698C208.049 62.5269 207.477 64.439 206.799 65.3061C206.12 66.1732 205.031 66.6071 203.532 66.6079C202.574 66.6079 201.862 66.4249 201.394 66.0661C200.926 65.7072 200.682 65.1536 200.658 64.4171H195.559C195.63 66.4007 196.314 67.9015 197.611 68.9195C198.904 69.9352 200.784 70.4442 203.238 70.4442C206.243 70.4442 208.502 69.832 210.014 68.6075C211.526 67.3831 212.524 65.3577 213.007 62.5312L216.426 43.1445H211.599L210.952 47.0148C210.545 45.4901 209.902 44.3935 209.043 43.7063C208.185 43.019 206.996 42.6718 205.5 42.6718C202.872 42.6671 200.701 43.7637 198.986 45.9616Z" fill="#32830A"/>
<path d="M185.365 11.3048L186.964 14.0809L187.093 24.5964L189.282 26.2723L190.548 25.3892L191.346 22.8723L200.744 19.1498L200.168 21.8367L201.092 23.5221L193.242 26.6277L193.182 29.4882L195.388 37.0411L199.399 38.4485L198.851 35.0849L196.867 34.1466L195.934 30.1837L197.513 29.2724L198.24 30.9636L203.399 35.2878L207.541 34.3788L205.426 32.4765L203.723 33.1005L200.882 30.016L204.739 28.9217L213.429 33.4089L223.644 34.3472L223.651 34.3601L224.29 38.2186L228.643 45.1043L230.212 52.5634L233.737 62.2345L234.922 59.7481L233.922 58.6785L233.003 54.2136L233.019 48.9124L234.505 52.4895L235.872 60.5585L236.849 63.4554L238.599 60.433L237.489 59.5956L236.293 53.1451L237.006 46.7486L234.59 40.8692L237.496 33.3632L236.486 28.5429L240 29.6923L243.915 34.2545L247.938 41.2304L246.142 35.4836L251.348 42.5827L254.998 45.5675L252.489 37.2053L254.419 38.3688L249.839 32.2431L242.506 27.2798L236.186 27.0839L235.981 26.0424L230.263 23.0682L224.419 22.2836L221.093 19.8371L224.916 19.5603L225.161 18.2303L219.814 17.0845L223.594 12.9667L222.642 9.27934L218.226 5.73626L213.747 4.18696L214.108 2.2307L212.574 0.41987L210.304 -0.00234222L209.214 1.85775L207.989 2.7139L208.784 2.86168L209.141 5.67644L211.111 5.76793L210.605 6.35434L211.809 8.81726L209.683 11.5699L203.428 8.11942L203.392 7.84146L204.707 7.5682L204.197 6.4763L203.147 6.35902L201.319 6.34964L202.427 5.35392L197.775 6.24761L198.008 4.9751L196.302 6.04471L194.552 6.03532L195.414 4.80856L192.073 7.20698L191.68 6.38601L190.28 8.7422L189.813 8.13936L188.368 11.1324L188.192 11.2286L185.365 11.3048ZM211.981 13.0089L215.261 11.6015L215.885 14.7482L211.981 13.0089ZM192.298 21.1354L193.401 20.0658L194.101 17.6028L194.991 16.6106L196.551 16.0524L200.065 18.079L192.298 21.1354Z" fill="#4D4D4D"/>
<path d="M128.371 71.0259H0.0116676C0.00522378 71.0259 0 71.0312 0 71.0376V71.834C0 71.8405 0.00522378 71.8457 0.0116676 71.8457H128.371C128.377 71.8457 128.383 71.8405 128.383 71.834V71.0376C128.383 71.0312 128.377 71.0259 128.371 71.0259Z" fill="#32830A"/>
<path d="M137.075 67.7643H138.891C139.966 67.7643 140.783 68.2921 140.767 69.3382C140.767 70.4618 139.984 71.067 139.017 71.1971L140.523 73.9474H139.714L138.251 71.2581H137.279L136.858 73.9474H136.109L137.075 67.7643ZM138.521 70.6612C139.518 70.6612 140.026 70.2202 140.026 69.3382C140.035 68.6545 139.605 68.3695 138.847 68.3695H137.731L137.369 70.6612H138.521Z" fill="#4D4D4D"/>
<path d="M145.198 72.5987C145.118 73.0435 145.087 73.4957 145.104 73.9474H144.423C144.408 73.6469 144.423 73.3456 144.467 73.0479C144.148 73.592 143.632 74.0248 142.901 74.0248C141.967 74.0248 141.404 73.4454 141.61 72.1307L142.041 69.425H142.755L142.299 72.2961C142.182 72.9998 142.436 73.4114 143.056 73.4114C143.804 73.4114 144.432 72.9095 144.573 72.0533L144.986 69.425H145.7L145.198 72.5987Z" fill="#4D4D4D"/>
<path d="M147.493 67.2623H148.216L147.166 73.9474H146.444L147.493 67.2623Z" fill="#4D4D4D"/>
<path d="M150.565 73.4278C151.194 73.4278 151.633 73.1604 151.804 72.6409H152.518C152.243 73.5791 151.452 74.0248 150.535 74.0248C149.313 74.0248 148.591 73.2203 148.591 72.0885C148.591 70.4888 149.614 69.3558 150.94 69.3558C152.161 69.3558 152.923 70.117 152.69 71.6639L152.663 71.8281H149.334C149.326 71.9231 149.326 72.0193 149.326 72.1225C149.326 72.9435 149.704 73.4278 150.565 73.4278ZM149.422 71.2487H152.028C152.097 70.341 151.719 69.9434 150.901 69.9434C150.263 69.9434 149.645 70.3234 149.421 71.2487H149.422Z" fill="#4D4D4D"/>
<path d="M155.967 72.7101L156.389 70.0302H155.743L155.838 69.425H156.483L156.646 68.3953H157.36L157.197 69.425H158.221L158.126 70.0302H157.099L156.669 72.7359C156.592 73.2296 156.763 73.402 157.168 73.402C157.35 73.4009 157.53 73.3688 157.701 73.307L157.607 73.904C157.432 73.9762 157.245 74.0113 157.056 74.0072C156.174 74.0072 155.855 73.4454 155.967 72.7101Z" fill="#4D4D4D"/>
<path d="M159.666 67.2623H160.38L159.913 70.2284C160.068 69.9619 160.29 69.7404 160.556 69.5858C160.822 69.4312 161.123 69.3487 161.43 69.3464C162.364 69.3464 162.953 69.8742 162.737 71.2405L162.308 73.9474H161.593L162.049 71.0763C162.165 70.3234 161.894 69.961 161.275 69.961C160.526 69.961 159.875 70.4618 159.743 71.3179L159.33 73.9474H158.616L159.666 67.2623Z" fill="#4D4D4D"/>
<path d="M165.644 73.4278C166.273 73.4278 166.712 73.1604 166.884 72.6409H167.6C167.325 73.5791 166.534 74.0248 165.616 74.0248C164.395 74.0248 163.673 73.2203 163.673 72.0885C163.673 70.4888 164.696 69.3558 166.021 69.3558C167.243 69.3558 168.005 70.117 167.771 71.6639L167.745 71.8281H164.415C164.407 71.9231 164.407 72.0193 164.407 72.1225C164.407 72.9435 164.785 73.4278 165.644 73.4278ZM164.501 71.2487H167.108C167.176 70.341 166.797 69.9434 165.98 69.9434C165.343 69.9434 164.724 70.3234 164.501 71.2487Z" fill="#4D4D4D"/>
<path d="M171.77 67.7643H173.585C174.66 67.7643 175.478 68.2921 175.46 69.3382C175.46 70.4618 174.678 71.067 173.71 71.1971L175.215 73.9474H174.407L172.945 71.2581H171.973L171.551 73.9474H170.803L171.77 67.7643ZM173.216 70.6612C174.213 70.6612 174.721 70.2202 174.721 69.3382C174.729 68.6545 174.3 68.3695 173.542 68.3695H172.423L172.063 70.6612H173.216Z" fill="#4D4D4D"/>
<path d="M176.029 72.7312C176.029 71.6158 177.034 71.2874 178.213 71.2874H179.082L179.133 70.9591C179.25 70.2671 179.017 69.9387 178.291 69.9387C177.708 69.9387 177.335 70.1897 177.215 70.7515H176.501C176.708 69.6701 177.594 69.3441 178.317 69.3441C179.322 69.3441 180.028 69.8027 179.839 71.0224L179.59 72.5963C179.495 73.1827 179.473 73.5639 179.513 73.9451H178.842C178.817 73.7066 178.814 73.4663 178.832 73.2273C178.696 73.4661 178.499 73.6646 178.262 73.8028C178.025 73.941 177.756 74.0139 177.482 74.0142C176.562 74.0213 176.029 73.5064 176.029 72.7312ZM178.919 72.2914L178.996 71.7976H178.23C177.223 71.7976 176.733 72.0404 176.733 72.7359C176.733 73.1346 177.001 73.4536 177.577 73.4536C178.248 73.4536 178.801 73.083 178.918 72.2961L178.919 72.2914Z" fill="#4D4D4D"/>
<path d="M180.751 71.9583C180.751 70.2894 181.861 69.3558 183.084 69.3558C184.072 69.3558 184.847 69.8484 184.908 70.9462H184.228C184.141 70.1686 183.677 69.9516 183.049 69.9516C182.154 69.9516 181.483 70.6553 181.483 71.9583C181.483 72.9095 181.95 73.4278 182.868 73.4278C183.18 73.4382 183.485 73.3328 183.725 73.1319C183.964 72.931 184.122 72.6486 184.168 72.3383H184.839C184.649 73.4114 183.849 74.0166 182.855 74.0166C181.5 74.0213 180.751 73.1687 180.751 71.9583Z" fill="#4D4D4D"/>
<path d="M187.478 73.4278C188.106 73.4278 188.545 73.1604 188.717 72.6409H189.431C189.156 73.5791 188.364 74.0248 187.448 74.0248C186.226 74.0248 185.504 73.2203 185.504 72.0885C185.504 70.4888 186.527 69.3558 187.853 69.3558C189.073 69.3558 189.836 70.117 189.603 71.6639L189.577 71.8281H186.248C186.239 71.9231 186.239 72.0193 186.239 72.1225C186.239 72.9435 186.618 73.4278 187.478 73.4278ZM186.334 71.2487H188.94C189.009 70.341 188.631 69.9434 187.814 69.9434C187.177 69.9434 186.558 70.3234 186.334 71.2487Z" fill="#4D4D4D"/>
</g>
<defs>
<clipPath id="clip0_251_6">
<rect width="255" height="77" fill="white"/>
</clipPath>
</defs>
</svg>
